# Blender v2.83.18 OBJ File: ''
# www.blender.org
o Plane_Plane.003
v -1.395092 0.000000 0.717792
v 2.110456 0.000000 1.819060
v -2.275844 0.000000 -2.693249
v 0.406706 0.000000 -0.606221
v 0.200827 0.000000 1.417406
v -0.366214 0.000000 -1.843999
v -0.704765 0.000000 -1.425281
v -0.121972 0.000000 0.889742
v 0.224355 0.000000 0.968498
v 1.294121 0.000000 -1.086631
v -1.485661 0.000000 -0.651048
v 2.015949 0.000000 0.287459
v 0.000000 0.000000 0.000000
v -0.381866 0.000000 -0.086631
v 0.500000 0.000000 0.000000
v -1.259894 0.000000 -0.200926
v 2.124895 0.000000 0.914780
v 0.000000 0.000000 0.500000
v -0.318862 0.000000 0.263733
v 0.500000 0.000000 0.500000
v 0.561593 0.000000 -0.244044
v -0.322899 0.000000 -0.295235
v -0.500000 0.000000 -0.500000
v 0.232230 0.000000 -0.224355
v -1.548665 0.000000 -1.207489
v 1.888628 0.000000 -0.361471
v -0.267770 0.000000 -0.848445
v -0.830774 0.000000 -1.147717
v -0.133984 0.000000 -0.421851
v -2.027763 0.000000 -2.132164
v -1.217284 0.000000 -2.353287
v -0.694871 0.000000 1.166700
v -0.797254 0.000000 -0.393779
v -0.663369 0.000000 0.110159
v -0.868134 0.000000 -0.893779
v -1.244193 0.000000 -1.317042
v -1.404633 0.000000 -1.637922
v -1.292406 0.000000 -0.598544
v -1.016761 0.000000 -0.340718
v -1.256966 0.000000 -0.988286
v -1.509969 0.000000 -1.354451
v -0.867124 0.000000 0.564874
v -1.035440 0.000000 0.236775
v 1.539477 0.000000 1.193658
v -0.043316 0.000000 0.769689
v -0.322800 0.000000 0.571487
v 0.862277 0.000000 0.994143
v -0.442852 0.000000 0.697496
v -0.851373 0.000000 0.159332
v 1.057754 0.000000 0.768729
v -0.021658 0.000000 0.634844
v -0.370053 0.000000 0.463551
v 0.681138 0.000000 0.747072
v -0.661400 0.000000 0.311946
v -0.934067 0.000000 -0.090693
v -1.758024 0.000000 -0.201936
v -2.462232 0.000000 -1.152410
v 0.721073 0.000000 -0.053767
v -0.161449 0.000000 -0.147617
v -0.440933 0.000000 -0.293316
v 0.366115 0.000000 -0.112177
v -0.832694 0.000000 -0.643779
v -1.274686 0.000000 -0.793415
v 1.108945 0.000000 0.558460
v 0.000000 0.000000 0.250000
v -0.350364 0.000000 0.088551
v 0.500000 0.000000 0.250000
v -2.252217 0.000000 -0.586780
v -0.730311 0.000000 -0.141810
v -1.154583 0.000000 -0.469631
v -1.485661 0.000000 -0.651048
v -2.462232 0.000000 -1.152410
v 0.406706 0.000000 -0.606221
v 1.888628 0.000000 -0.361471
v -0.204859 0.000000 -1.161769
v 0.068477 0.000000 -0.630115
v -0.068467 0.000000 -0.834733
v -2.275844 0.000000 -2.693249
v -2.027763 0.000000 -2.132164
vt 0.574678 0.506545
vt 0.715035 0.439344
vt 0.669988 0.491922
vt 0.684955 0.558922
vt 0.794408 0.668185
vt 0.689658 0.666087
vt 0.677624 0.740960
vt 1.000000 0.815371
vt 0.790914 0.573199
vt 0.711612 0.527968
vt 0.466558 0.360520
vt 0.465888 0.454497
vt 0.389119 0.435571
vt 0.396326 0.574854
vt 0.433348 0.518374
vt 0.463332 0.603978
vt 0.384433 0.500384
vt 0.466149 0.245763
vt 0.543327 0.379446
vt 0.393652 0.237529
vt 0.389788 0.341593
vt 0.341973 0.295699
vt 0.266229 0.474949
vt 0.312349 0.416644
vt 0.335517 0.482393
vt 0.267660 0.530158
vt 0.329320 0.545730
vt 0.267587 0.409687
vt 0.486213 0.489906
vt 0.570750 0.436624
vt 0.506538 0.525316
vt 0.534612 0.628224
vt 0.541988 0.567401
vt 0.605893 0.652470
vt 0.487668 0.542888
vt 0.557039 0.408035
vt 0.627807 0.388676
vt 0.574692 0.717989
vt 0.647949 0.783686
vt 0.512107 0.705896
vt 0.349071 0.601568
vt 0.413041 0.632909
vt 0.431282 0.663356
vt 0.449522 0.693803
vt 0.751311 0.789335
vt 0.806572 0.920285
vt 0.940447 1.000000
vt 0.435714 0.726786
vt 0.297256 0.836982
vt 0.332458 0.658821
vt 0.255618 0.733668
vt 0.596827 0.778369
vt 0.438422 0.911327
vt 0.158129 0.541890
vt 0.232813 0.591993
vt 0.029401 0.609562
vt 0.183114 0.468166
vt 0.285102 0.570228
vt 0.203232 0.347500
vt 0.222825 0.402729
vt 0.061738 0.317047
vt 0.173777 0.405447
vt 0.000000 0.470473
vt 0.240403 0.459685
vt 0.234159 0.000000
vt 0.294157 0.249805
vt 0.594077 0.350333
vt 0.000000 0.000000
vt 0.000000 0.000000
vt 0.000000 0.000000
vt 0.000000 0.000000
vt 0.000000 0.000000
vt 0.000000 0.000000
vt 1.000000 0.342511
vt 0.000000 0.000000
vt 0.000000 0.000000
vt 0.000000 0.000000
vt 0.869395 0.198376
vt 0.975421 0.649068
vt 0.689843 0.130137
vt 0.514079 0.066292
vt 0.337774 0.133052
vt 0.000000 0.000000
vt 0.000000 0.000000
vt 0.000000 0.000000
vn 0.0000 1.0000 0.0000
vn 0.0000 0.0000 1.0000
s off
f 29/1/1 4/2/1 76/3/1
f 27/4/1 7/5/1 28/6/1
f 36/7/1 7/5/1 31/8/1
f 75/9/1 27/4/1 77/10/1
f 67/11/1 13/12/1 65/13/1
f 69/14/1 14/15/1 33/16/1
f 66/17/1 13/12/1 14/15/1
f 64/18/1 15/19/1 67/11/1
f 50/20/1 20/21/1 53/22/1
f 52/23/1 18/24/1 19/25/1
f 54/26/1 19/25/1 34/27/1
f 51/28/1 20/21/1 18/24/1
f 59/29/1 24/30/1 22/31/1
f 62/32/1 23/33/1 35/34/1
f 60/35/1 22/31/1 23/33/1
f 61/36/1 21/37/1 24/30/1
f 22/31/1 29/1/1 27/4/1
f 35/34/1 28/6/1 36/7/1
f 23/33/1 27/4/1 28/6/1
f 21/37/1 29/1/1 24/30/1
f 40/38/1 36/7/1 41/39/1
f 63/40/1 35/34/1 40/38/1
f 55/41/1 34/27/1 39/42/1
f 70/43/1 33/16/1 38/44/1
f 36/7/1 37/45/1 41/39/1
f 30/46/1 37/45/1 3/47/1
f 70/43/1 11/48/1 68/49/1
f 55/41/1 16/50/1 56/51/1
f 63/40/1 25/52/1 57/53/1
f 25/52/1 41/39/1 30/46/1
f 42/54/1 43/55/1 1/56/1
f 42/54/1 48/57/1 49/58/1
f 9/59/1 45/60/1 5/61/1
f 8/62/1 48/57/1 32/63/1
f 8/62/1 45/60/1 46/64/1
f 2/65/1 47/66/1 9/59/1
f 43/55/1 55/41/1 56/51/1
f 49/58/1 54/26/1 55/41/1
f 45/60/1 53/22/1 51/28/1
f 48/57/1 52/23/1 54/26/1
f 46/64/1 51/28/1 52/23/1
f 47/66/1 50/20/1 53/22/1
f 11/48/1 63/40/1 57/53/1
f 38/44/1 62/32/1 63/40/1
f 15/19/1 58/67/1 61/36/1
f 14/15/1 59/29/1 60/35/1
f 33/16/1 60/35/1 62/32/1
f 13/12/1 61/36/1 59/29/1
f 16/50/1 70/43/1 68/49/1
f 39/42/1 69/14/1 70/43/1
f 20/21/1 64/18/1 67/11/1
f 19/25/1 65/13/1 66/17/1
f 34/27/1 66/17/1 69/14/1
f 20/21/1 65/13/1 18/24/1
f 11/68/2 72/69/2 71/70/2
f 4/71/2 74/72/2 73/73/2
f 75/9/1 77/10/1 10/74/1
f 77/10/1 76/3/1 10/74/1
f 30/75/2 78/76/2 79/77/2
f 29/1/1 26/78/1 4/2/1
f 76/3/1 77/10/1 29/1/1
f 27/4/1 6/79/1 7/5/1
f 36/7/1 28/6/1 7/5/1
f 6/79/1 27/4/1 75/9/1
f 27/4/1 29/1/1 77/10/1
f 67/11/1 15/19/1 13/12/1
f 69/14/1 66/17/1 14/15/1
f 66/17/1 65/13/1 13/12/1
f 64/18/1 12/80/1 15/19/1
f 50/20/1 17/81/1 20/21/1
f 52/23/1 51/28/1 18/24/1
f 54/26/1 52/23/1 19/25/1
f 51/28/1 53/22/1 20/21/1
f 59/29/1 61/36/1 24/30/1
f 62/32/1 60/35/1 23/33/1
f 60/35/1 59/29/1 22/31/1
f 61/36/1 58/67/1 21/37/1
f 22/31/1 24/30/1 29/1/1
f 35/34/1 23/33/1 28/6/1
f 23/33/1 22/31/1 27/4/1
f 21/37/1 26/78/1 29/1/1
f 40/38/1 35/34/1 36/7/1
f 63/40/1 62/32/1 35/34/1
f 55/41/1 54/26/1 34/27/1
f 70/43/1 69/14/1 33/16/1
f 36/7/1 31/8/1 37/45/1
f 30/46/1 41/39/1 37/45/1
f 70/43/1 38/44/1 11/48/1
f 55/41/1 39/42/1 16/50/1
f 63/40/1 40/38/1 25/52/1
f 25/52/1 40/38/1 41/39/1
f 42/54/1 49/58/1 43/55/1
f 42/54/1 32/63/1 48/57/1
f 9/59/1 47/66/1 45/60/1
f 8/62/1 46/64/1 48/57/1
f 8/62/1 5/61/1 45/60/1
f 2/65/1 44/82/1 47/66/1
f 43/55/1 49/58/1 55/41/1
f 49/58/1 48/57/1 54/26/1
f 45/60/1 47/66/1 53/22/1
f 48/57/1 46/64/1 52/23/1
f 46/64/1 45/60/1 51/28/1
f 47/66/1 44/82/1 50/20/1
f 11/48/1 38/44/1 63/40/1
f 38/44/1 33/16/1 62/32/1
f 15/19/1 12/80/1 58/67/1
f 14/15/1 13/12/1 59/29/1
f 33/16/1 14/15/1 60/35/1
f 13/12/1 15/19/1 61/36/1
f 16/50/1 39/42/1 70/43/1
f 39/42/1 34/27/1 69/14/1
f 20/21/1 17/81/1 64/18/1
f 19/25/1 18/24/1 65/13/1
f 34/27/1 19/25/1 66/17/1
f 20/21/1 67/11/1 65/13/1
f 11/68/2 57/83/2 72/69/2
f 4/71/2 26/84/2 74/72/2
f 30/75/2 3/85/2 78/76/2
