# Blender v2.83.18 OBJ File: ''
# www.blender.org
o Cube_Cube.001
v -1.000000 -1.000000 1.000000
v -1.000000 1.000000 1.000000
v -1.000000 -1.000000 -1.000000
v -1.000000 1.000000 -1.000000
v 1.000000 -1.000000 1.000000
v 1.000000 1.000000 1.000000
v 1.000000 -1.000000 -1.000000
v 1.000000 1.000000 -1.000000
v -1.000000 1.000000 1.000000
v -1.000000 1.000000 -1.000000
v 1.000000 1.000000 -1.000000
v 1.000000 1.000000 1.000000
v -1.000000 3.955875 1.000000
v -1.000000 3.955875 -1.000000
v 1.000000 3.955875 -1.000000
v 1.000000 3.955875 1.000000
v 1.000000 1.000000 -1.000000
v 1.000000 -1.000000 -1.000000
v 1.000000 -1.000000 1.000000
v 1.000000 1.000000 1.000000
v 3.229529 1.000000 -1.000000
v 3.229529 -1.000000 -1.000000
v 3.229529 -1.000000 1.000000
v 3.229529 1.000000 1.000000
v 3.229678 -1.000000 1.000000
v 3.229678 1.000000 1.000000
v 3.229678 -1.000000 -1.000000
v 3.229678 1.000000 -1.000000
v 5.229678 -1.000000 1.000000
v 5.229678 1.000000 1.000000
v 5.229678 -1.000000 -1.000000
v 5.229678 1.000000 -1.000000
v 3.229678 1.000000 1.000000
v 3.229678 1.000000 -1.000000
v 5.229678 1.000000 -1.000000
v 5.229678 1.000000 1.000000
v 3.229678 3.955875 1.000000
v 3.229678 3.955875 -1.000000
v 5.229678 3.955875 -1.000000
v 5.229678 3.955875 1.000000
v -1.000000 5.251676 1.000000
v -1.000000 5.251676 -1.000000
v 1.000000 5.251676 -1.000000
v 1.000000 5.251676 1.000000
v 5.229678 1.000000 1.000000
v 3.229678 1.000000 1.000000
v 3.229678 3.955875 1.000000
v 3.229678 3.955875 -1.000000
v 5.229678 3.955875 -1.000000
v 5.229678 3.955875 1.000000
v 5.229678 1.000000 -1.000000
v 5.229678 1.000000 1.000000
v 3.229678 3.955875 -1.000000
v 5.229678 3.955875 -1.000000
v 5.229678 3.955875 1.000000
v 5.229678 1.000000 1.000000
v 3.229678 1.000000 1.000000
v 3.229678 3.955875 1.000000
v 3.229678 3.955875 -1.000000
v 5.229678 3.955875 -1.000000
v 5.229678 3.955875 1.000000
v 3.229678 5.210082 1.000000
v 3.229678 5.210082 -1.000000
v 5.229678 5.210082 -1.000000
v 5.229678 5.210082 1.000000
v -1.000000 3.955875 0.000000
v 0.000000 3.955875 -1.000000
v 1.000000 3.955875 0.000000
v 0.000000 3.955875 1.000000
vt 0.085696 0.210753
vt 0.059569 0.188062
vt 0.067855 0.191818
vt 0.062471 0.203151
vt 0.048380 0.169216
vt 0.088257 0.187417
vt 0.050138 0.173544
vt 0.068678 0.175625
vt 0.061387 0.174321
vt 0.050874 0.162600
vt 0.073054 0.210226
vt 0.032573 0.198601
vt 0.087475 0.104080
vt 0.347683 0.036670
vt 0.339189 0.182237
vt 0.104927 0.201180
vt 0.102101 0.210513
vt 0.084927 0.216161
vt 0.086494 0.229740
vt 0.126398 0.282928
vt 0.156935 0.309570
vt 0.113825 0.310089
vt 0.156954 0.284017
vt 0.270906 0.318391
vt 0.201346 0.301263
vt 0.101137 0.289202
vt 0.075686 0.301880
vt 0.040818 0.162318
vt 0.035980 0.162800
vt 0.047931 0.158546
vt 0.028717 0.154421
vt 0.029336 0.158959
vt 0.000308 0.143147
vt 0.702544 0.168772
vt 0.691528 0.101295
vt 0.689280 0.090125
vt 0.760830 0.174638
vt 0.688346 0.091052
vt 0.699741 0.171554
vt 0.673769 0.000308
vt 0.710415 0.133678
vt 0.790895 0.216958
vt 0.707971 0.198095
vt 0.699467 0.165870
vt 0.735487 0.209990
vt 0.671095 0.191119
vt 0.670338 0.132822
vt 0.645026 0.186579
vt 0.708363 0.196071
vt 0.626754 0.232616
vt 0.714144 0.473679
vt 0.731455 0.189335
vt 0.730535 0.426270
vt 0.758899 0.423064
vt 0.730092 0.432196
vt 0.684810 0.406949
vt 0.184916 0.366483
vt 0.097538 0.359611
vt 0.626138 0.000308
vt 0.626138 0.455433
vt 0.740669 0.500194
vt 0.763444 0.212801
vt 0.706140 0.408616
vt 0.735060 0.449523
vt 0.729208 0.444047
vt 0.782738 0.396605
vt 0.692437 0.215545
vt 0.687619 0.447165
vt 0.709988 0.435307
vt 0.661094 0.420651
vt 0.713645 0.465388
vt 0.770204 0.600856
vt 0.676511 0.235019
vt 0.704799 0.432348
vt 0.729871 0.435159
vt 0.710754 0.421746
vt 0.727470 0.410283
vt 0.734088 0.472319
vt 0.731586 0.503120
vt 0.790895 0.482767
vt 0.746109 0.494327
vt 0.165624 0.294925
vt 0.047913 0.319180
vn -1.0000 0.0000 0.0000
vn 0.0000 0.0000 -1.0000
vn 0.0000 0.0000 1.0000
vn 0.0000 -1.0000 0.0000
vn 1.0000 0.0000 0.0000
vn 0.0000 1.0000 0.0000
s off
f 2/1/1 3/2/1 1/3/1
f 4/4/2 7/5/2 3/2/2
f 6/6/3 19/7/3 20/8/3
f 6/6/3 1/3/3 5/9/3
f 7/5/4 1/3/4 3/2/4
f 8/10/3 10/11/3 11/12/3
f 11/13/5 15/14/5 68/15/5
f 6/6/3 11/13/3 12/16/3
f 4/4/3 9/17/3 10/11/3
f 2/18/3 12/16/3 9/19/3
f 66/20/1 41/21/1 42/22/1
f 9/17/1 13/23/1 66/20/1
f 12/16/3 16/24/3 69/25/3
f 10/11/2 14/26/2 67/27/2
f 19/7/3 24/28/3 20/8/3
f 5/9/3 18/29/3 19/7/3
f 8/10/3 20/8/3 17/30/3
f 7/5/3 17/30/3 18/29/3
f 21/31/5 23/32/5 22/33/5
f 18/29/4 23/32/4 19/7/4
f 20/8/6 21/31/6 17/30/6
f 17/30/2 22/33/2 18/29/2
f 26/34/1 27/35/1 25/36/1
f 28/37/2 31/38/2 27/35/2
f 32/39/5 29/40/5 31/38/5
f 30/41/3 25/36/3 29/40/3
f 31/38/4 25/36/4 27/35/4
f 32/39/3 34/42/3 35/43/3
f 36/44/3 51/45/3 52/46/3
f 30/47/3 35/43/3 36/44/3
f 28/48/3 33/49/3 34/50/3
f 26/34/3 36/44/3 33/49/3
f 36/44/3 50/51/3 45/52/3
f 33/49/1 38/53/1 34/50/1
f 38/53/3 47/54/3 48/55/3
f 34/42/2 39/56/2 35/43/2
f 42/22/6 44/57/6 43/58/6
f 69/25/3 44/57/3 41/21/3
f 67/27/2 42/22/2 43/58/2
f 68/15/5 43/59/5 44/60/5
f 45/52/3 61/61/3 56/62/3
f 35/43/3 54/63/3 51/45/3
f 48/55/3 58/64/3 59/65/3
f 37/66/3 46/67/3 47/54/3
f 33/49/3 45/52/3 46/67/3
f 40/68/3 49/69/3 50/51/3
f 51/45/5 55/70/5 52/46/5
f 60/71/5 65/72/5 61/61/5
f 56/62/3 58/64/3 57/73/3
f 54/74/3 59/65/3 60/71/3
f 39/56/3 53/75/3 54/74/3
f 47/54/3 57/73/3 58/64/3
f 40/68/3 52/46/3 55/70/3
f 39/76/3 55/70/3 54/77/3
f 50/51/3 60/71/3 61/61/3
f 49/69/3 54/74/3 60/71/3
f 46/67/3 56/62/3 57/73/3
f 38/53/3 59/65/3 53/75/3
f 63/78/6 65/72/6 64/79/6
f 58/64/1 63/78/1 59/65/1
f 61/80/3 62/81/3 58/64/3
f 59/65/2 64/79/2 60/71/2
f 2/1/1 4/4/1 3/2/1
f 4/4/2 8/10/2 7/5/2
f 6/6/3 5/9/3 19/7/3
f 6/6/3 2/18/3 1/3/3
f 7/5/4 5/9/4 1/3/4
f 8/10/3 4/4/3 10/11/3
f 16/24/5 12/16/5 68/15/5
f 12/16/5 11/13/5 68/15/5
f 6/6/3 8/10/3 11/13/3
f 4/4/3 2/1/3 9/17/3
f 2/18/3 6/6/3 12/16/3
f 42/22/1 14/26/1 66/20/1
f 66/20/1 13/23/1 41/21/1
f 14/26/1 10/11/1 66/20/1
f 10/11/1 9/17/1 66/20/1
f 13/82/3 9/19/3 69/25/3
f 9/19/3 12/16/3 69/25/3
f 15/83/2 11/12/2 67/27/2
f 11/12/2 10/11/2 67/27/2
f 19/7/3 23/32/3 24/28/3
f 5/9/3 7/5/3 18/29/3
f 8/10/3 6/6/3 20/8/3
f 7/5/3 8/10/3 17/30/3
f 21/31/5 24/28/5 23/32/5
f 18/29/4 22/33/4 23/32/4
f 20/8/6 24/28/6 21/31/6
f 17/30/2 21/31/2 22/33/2
f 26/34/1 28/48/1 27/35/1
f 28/37/2 32/39/2 31/38/2
f 32/39/5 30/47/5 29/40/5
f 30/41/3 26/34/3 25/36/3
f 31/38/4 29/40/4 25/36/4
f 32/39/3 28/37/3 34/42/3
f 36/44/3 35/43/3 51/45/3
f 30/47/3 32/39/3 35/43/3
f 28/48/3 26/34/3 33/49/3
f 26/34/3 30/41/3 36/44/3
f 36/44/3 40/68/3 50/51/3
f 33/49/1 37/66/1 38/53/1
f 38/53/3 37/66/3 47/54/3
f 34/42/2 38/53/2 39/56/2
f 42/22/6 41/21/6 44/57/6
f 41/21/3 13/82/3 69/25/3
f 69/25/3 16/24/3 44/57/3
f 43/58/2 15/83/2 67/27/2
f 67/27/2 14/26/2 42/22/2
f 44/60/5 16/24/5 68/15/5
f 68/15/5 15/14/5 43/59/5
f 45/52/3 50/51/3 61/61/3
f 35/43/3 39/56/3 54/63/3
f 48/55/3 47/54/3 58/64/3
f 37/66/3 33/49/3 46/67/3
f 33/49/3 36/44/3 45/52/3
f 40/68/3 39/76/3 49/69/3
f 51/45/5 54/77/5 55/70/5
f 60/71/5 64/79/5 65/72/5
f 56/62/3 61/80/3 58/64/3
f 54/74/3 53/75/3 59/65/3
f 39/56/3 38/53/3 53/75/3
f 47/54/3 46/67/3 57/73/3
f 40/68/3 36/44/3 52/46/3
f 39/76/3 40/68/3 55/70/3
f 50/51/3 49/69/3 60/71/3
f 49/69/3 39/76/3 54/74/3
f 46/67/3 45/52/3 56/62/3
f 38/53/3 48/55/3 59/65/3
f 63/78/6 62/81/6 65/72/6
f 58/64/1 62/81/1 63/78/1
f 61/80/3 65/72/3 62/81/3
f 59/65/2 63/78/2 64/79/2
o Cube.001_Cube.005
v -1.000000 5.247561 1.000000
v -1.000000 7.247561 1.000000
v -1.000000 5.247561 -1.000000
v -1.000000 7.247561 -1.000000
v 1.000000 5.247561 1.000000
v 1.000000 7.247561 1.000000
v 1.000000 5.247561 -1.000000
v 1.000000 7.247561 -1.000000
vt 0.977672 0.186469
vt 0.791512 0.000308
vt 0.977672 0.000308
vt 0.813531 0.601473
vt 0.999692 0.787633
vt 0.813531 0.787633
vt 0.000308 0.828987
vt 0.186469 0.642827
vt 0.186469 0.828987
vt 0.373862 0.828987
vt 0.560023 0.642827
vt 0.560023 0.828987
vt 0.373246 0.456050
vt 0.187085 0.642210
vt 0.187085 0.456050
vt 0.626754 0.974410
vt 0.812915 0.788250
vt 0.812915 0.974410
vt 0.791512 0.186469
vt 0.999692 0.601473
vt 0.000308 0.642827
vt 0.373862 0.642827
vt 0.373246 0.642210
vt 0.626754 0.788250
vn -1.0000 0.0000 0.0000
vn 0.0000 0.0000 -1.0000
vn 1.0000 0.0000 0.0000
vn 0.0000 0.0000 1.0000
vn 0.0000 -1.0000 0.0000
vn 0.0000 1.0000 0.0000
s off
f 71/84/7 72/85/7 70/86/7
f 73/87/8 76/88/8 72/89/8
f 77/90/9 74/91/9 76/92/9
f 75/93/10 70/94/10 74/95/10
f 76/96/11 70/97/11 72/98/11
f 73/99/12 75/100/12 77/101/12
f 71/84/7 73/102/7 72/85/7
f 73/87/8 77/103/8 76/88/8
f 77/90/9 75/104/9 74/91/9
f 75/93/10 71/105/10 70/94/10
f 76/96/11 74/106/11 70/97/11
f 73/99/12 71/107/12 75/100/12
o Cube.002_Cube.006
v 3.227015 5.204619 1.000000
v 3.227015 7.204619 1.000000
v 3.227015 5.204619 -1.000000
v 3.227015 7.204619 -1.000000
v 5.227015 5.204619 1.000000
v 5.227015 7.204619 1.000000
v 5.227015 5.204619 -1.000000
v 5.227015 7.204619 -1.000000
vt 0.560023 0.642210
vt 0.373862 0.456050
vt 0.560023 0.456050
vt 0.791512 0.373862
vt 0.977672 0.560023
vt 0.791512 0.560023
vt 0.791512 0.373246
vt 0.977672 0.187085
vt 0.977672 0.373246
vt 0.187085 0.828987
vt 0.373246 0.642827
vt 0.373246 0.828987
vt 0.186469 0.456050
vt 0.000308 0.642210
vt 0.000308 0.456050
vt 0.626754 0.787633
vt 0.812915 0.601473
vt 0.812915 0.787633
vt 0.373862 0.642210
vt 0.977672 0.373862
vt 0.791512 0.187085
vt 0.187085 0.642827
vt 0.186469 0.642210
vt 0.626754 0.601473
vn -1.0000 0.0000 0.0000
vn 0.0000 0.0000 -1.0000
vn 1.0000 0.0000 0.0000
vn 0.0000 0.0000 1.0000
vn 0.0000 -1.0000 0.0000
vn 0.0000 1.0000 0.0000
s off
f 79/108/13 80/109/13 78/110/13
f 81/111/14 84/112/14 80/113/14
f 85/114/15 82/115/15 84/116/15
f 83/117/16 78/118/16 82/119/16
f 84/120/17 78/121/17 80/122/17
f 81/123/18 83/124/18 85/125/18
f 79/108/13 81/126/13 80/109/13
f 81/111/14 85/127/14 84/112/14
f 85/114/15 83/128/15 82/115/15
f 83/117/16 79/129/16 78/118/16
f 84/120/17 82/130/17 78/121/17
f 81/123/18 79/131/18 83/124/18
